<svg width="72" height="72" viewBox="0 0 72 72" fill="none" xmlns="http://www.w3.org/2000/svg">
<g clip-path="url(#clip0_119_9015)">
<path d="M36.6441 47.0001C43.0983 47.0001 48.3304 41.7679 48.3304 35.3138C48.3304 28.8596 43.0983 23.6274 36.6441 23.6274C30.1899 23.6274 24.9578 28.8596 24.9578 35.3138C24.9578 41.7679 30.1899 47.0001 36.6441 47.0001Z" fill="#A0616A"/>
<path d="M26.9713 49.6169L29.4074 43.3913L41.9939 41.4966L43.3462 55.2777L30.6244 55.5483L26.9713 49.6169Z" fill="#A0616A"/>
<path d="M48.4436 37.47C48.292 38.0776 47.9854 39.5243 47.5066 39.5315C47.1154 39.5372 46.741 33.2606 47.1317 32.2224C47.5806 31.0297 46.4011 29.521 45.5125 28.7465C43.915 27.354 40.3687 30.3441 36.7628 28.9896C36.6672 28.9537 36.6862 28.9578 35.5475 28.5035C32.0436 27.1054 31.8595 27.0651 31.6587 27.0452C29.9602 26.8771 27.8872 28.2671 27.0408 29.9618C26.1608 31.7234 26.8961 33.2344 26.0686 37.4963C25.9722 37.9931 25.8207 38.7011 25.5825 38.7115C25.1469 38.7305 24.7217 36.4042 24.6103 35.7949C24.1436 33.2422 23.6937 30.7811 24.6103 28.0174C24.7103 27.7159 25.3264 26.597 26.5547 24.3716C28.3241 21.1657 29.2141 19.5567 29.4713 19.2676C31.3157 17.1933 34.6731 15.3012 37.4919 16.1079C38.9166 16.5157 38.6612 17.1713 40.4085 17.8093C43.5224 18.9462 46.2287 17.5558 46.7278 18.5384C46.9922 19.0589 46.2524 19.4881 46.2417 20.4828C46.2233 22.1896 48.382 22.6828 49.6444 24.3716C50.323 25.2795 51.4847 25.2892 48.4436 37.47Z" fill="#2F2E41"/>
<path d="M62.9215 59.9021C62.4505 60.4313 61.962 60.9497 61.4558 61.4559C54.6564 68.2552 45.6158 72 36 72C27.6889 72 19.8081 69.2026 13.4323 64.053C13.4283 64.0503 13.4255 64.0475 13.4215 64.0434C12.5757 63.3615 11.7568 62.636 10.9665 61.87C10.9813 61.7509 10.9976 61.6331 11.0152 61.5167C11.1262 60.7317 11.2493 59.9833 11.3873 59.2944C12.5174 53.6482 27.3871 47.7204 27.7741 47.566C27.7795 47.5647 27.7823 47.5634 27.7823 47.5634C27.7823 47.5634 29.696 54.6172 37.8961 54.5265C43.4815 54.4656 42.3988 47.5634 42.3988 47.5634C42.3988 47.5634 42.4665 47.5768 42.5937 47.6039C44.2069 47.9464 55.4075 50.4068 59.8263 53.7646C61.1729 54.7877 62.1392 56.9667 62.8335 59.5651C62.8633 59.6761 62.8917 59.7898 62.9215 59.9021Z" fill="#1868F1"/>
<path d="M61.4558 10.5442C54.6564 3.74493 45.6158 0 36 0C26.3842 0 17.3436 3.74493 10.5442 10.5442C3.74484 17.3437 0 26.3842 0 36C0 44.7768 3.11956 53.0743 8.83625 59.6261C9.38166 60.2527 9.95143 60.863 10.5442 61.4559C10.6836 61.5952 10.8244 61.7346 10.9665 61.87C11.7569 62.636 12.5757 63.3615 13.4215 64.0435C13.4256 64.0476 13.4283 64.0503 13.4323 64.053C19.8081 69.2026 27.6889 72 36 72C45.6158 72 54.6564 68.2552 61.4558 61.4559C61.962 60.9497 62.4505 60.4314 62.9215 59.9022C68.7911 53.3085 72 44.9013 72 36C72 26.3842 68.2552 17.3437 61.4558 10.5442ZM62.8335 59.5651C61.7684 60.7764 60.6235 61.916 59.4054 62.973C57.0952 64.9828 54.5238 66.6988 51.7507 68.0658C50.7776 68.5462 49.7802 68.9833 48.7597 69.3745C44.7956 70.8958 40.4932 71.7293 36 71.7293C31.6638 71.7293 27.5062 70.9526 23.6585 69.5315C22.0791 68.9495 20.5525 68.258 19.0868 67.4662C18.8716 67.3499 18.6578 67.2321 18.4453 67.1117C17.3274 66.4782 16.246 65.7867 15.208 65.0396C13.7206 63.9731 12.3185 62.7944 11.0152 61.5167C10.2844 60.8008 9.58603 60.0551 8.91882 59.2797C3.53099 53.0216 0.270677 44.885 0.270677 36C0.270677 16.2989 16.2988 0.270677 36 0.270677C55.7012 0.270677 71.7293 16.2989 71.7293 36C71.7293 45.0217 68.3689 53.2719 62.8335 59.5651Z" fill="#3F3D56"/>
</g>
<defs>
<clipPath id="clip0_119_9015">
<rect width="72" height="72" fill="white"/>
</clipPath>
</defs>
</svg>
