<svg width="180" height="180" viewBox="0 0 180 180" fill="none" xmlns="http://www.w3.org/2000/svg">
<circle cx="90" cy="90" r="90" fill="#1868F1"/>
<path d="M112.1 73.43C120.19 69 130 70.17 137.43 75.14C154.78 86.73 150.66 112.78 131.32 119.62C128.447 120.633 123.89 121.12 117.65 121.08C96.4967 120.947 76.7933 120.9 58.54 120.94C56.08 120.947 53.3967 120.43 50.49 119.39C35.61 114.08 29.32 95.79 37.7 82.7C42.92 74.54 50.6067 70.5367 60.76 70.69C61.2133 70.6967 61.47 70.4733 61.53 70.02C62.97 58.94 72.35 50.57 82.98 49.22C97.85 47.32 110.25 58.15 111.23 72.95C111.27 73.5633 111.56 73.7233 112.1 73.43ZM106.25 77.45C106.57 77.0967 106.75 76.68 106.79 76.2C107.137 72.0133 106.507 68.3033 104.9 65.07C95.82 46.73 68.99 50.75 65.67 70.87C65.59 71.3367 65.7767 71.64 66.23 71.78C69.95 72.9267 73.28 74.83 76.22 77.49C76.322 77.5823 76.4015 77.6966 76.4524 77.8244C76.5033 77.9522 76.5242 78.0899 76.5136 78.227C76.503 78.3641 76.4611 78.497 76.3911 78.6154C76.3212 78.7338 76.225 78.8346 76.11 78.91C75.43 79.3567 74.85 79.8933 74.37 80.52C74.0233 80.9733 73.64 81.0067 73.22 80.62C64.03 72.19 48.57 73.45 41.75 84.35C37.2167 91.6033 37.0567 98.9933 41.27 106.52C44.66 112.56 51.77 116.54 58.71 116.55C78.8633 116.563 99.7433 116.577 121.35 116.59C125.357 116.597 128.537 116.123 130.89 115.17C142.22 110.58 147.74 96.93 141.55 85.94C134.82 73.99 119.63 71.45 109.33 80.46C108.883 80.8467 108.443 80.84 108.01 80.44L106.31 78.88C105.817 78.42 105.797 77.9433 106.25 77.45Z" fill="white"/>
</svg>
