<svg width="295" height="265" viewBox="0 0 295 265" fill="none" xmlns="http://www.w3.org/2000/svg">
<g clip-path="url(#clip0_168_13148)">
<path d="M79.6551 166.043C108.864 166.043 132.543 142.304 132.543 113.021C132.543 83.7385 108.864 60 79.6551 60C50.4458 60 26.767 83.7385 26.767 113.021C26.767 142.304 50.4458 166.043 79.6551 166.043Z" fill="#F2F2F2"/>
<path d="M7 72.7307C7 92.022 19.0719 107.632 33.9905 107.632L7 72.7307Z" fill="#2F2E41"/>
<path d="M33.9905 107.632C33.9905 88.1242 47.4621 72.3386 64.1103 72.3386L33.9905 107.632Z" fill="#1868F1"/>
<path d="M16.7792 74.4795C16.7792 92.8042 24.4772 107.632 33.9905 107.632L16.7792 74.4795Z" fill="#1868F1"/>
<path d="M33.9905 107.632C33.9905 82.7053 49.5615 62.5347 68.8043 62.5347L33.9905 107.632Z" fill="#2F2E41"/>
<path d="M28.3124 107.878C28.3124 107.878 32.1401 107.76 33.2936 106.937C34.4472 106.113 39.1816 105.13 39.4678 106.451C39.754 107.771 45.2201 113.019 40.8986 113.054C36.5772 113.089 30.8575 112.379 29.7062 111.676C28.5548 110.973 28.3124 107.878 28.3124 107.878Z" fill="#A8A8A8"/>
<path opacity="0.2" d="M40.9758 112.595C36.6543 112.629 30.9346 111.92 29.7833 111.217C28.9065 110.681 28.5571 108.76 28.4402 107.873C28.3592 107.877 28.3124 107.878 28.3124 107.878C28.3124 107.878 28.5548 110.973 29.7062 111.676C30.8575 112.379 36.5772 113.089 40.8986 113.054C42.1461 113.044 42.577 112.599 42.5533 111.94C42.38 112.338 41.9042 112.587 40.9758 112.595Z" fill="black"/>
<path d="M56.3148 172.002C81.9587 172.002 102.747 169.167 102.747 165.67C102.747 162.172 81.9587 159.337 56.3148 159.337C30.671 159.337 9.88257 162.172 9.88257 165.67C9.88257 169.167 30.671 172.002 56.3148 172.002Z" fill="#3F3D56"/>
<path opacity="0.1" d="M56.3148 170.986C77.8447 170.986 95.2981 168.606 95.2981 165.67C95.2981 162.733 77.8447 160.353 56.3148 160.353C34.785 160.353 17.3316 162.733 17.3316 165.67C17.3316 168.606 34.785 170.986 56.3148 170.986Z" fill="black"/>
<path d="M214.731 234C253.539 234 285 229.709 285 224.416C285 219.123 253.539 214.833 214.731 214.833C175.922 214.833 144.462 219.123 144.462 224.416C144.462 229.709 175.922 234 214.731 234Z" fill="#3F3D56"/>
<path d="M84.1245 226.439C107.437 226.439 126.336 223.862 126.336 220.682C126.336 217.503 107.437 214.925 84.1245 214.925C60.812 214.925 41.9134 217.503 41.9134 220.682C41.9134 223.862 60.812 226.439 84.1245 226.439Z" fill="#3F3D56"/>
<path d="M121.866 215.828C144.213 221.554 187.169 208.361 191.887 193.425" stroke="#2F2E41" stroke-width="2" stroke-miterlimit="10"/>
<path d="M83.8762 124.472C83.8762 124.472 116.155 115.511 118.142 144.386C120.128 173.262 91.5735 181.476 113.921 187.202" stroke="#2F2E41" stroke-width="2" stroke-miterlimit="10"/>
<path d="M52.6902 193.744C52.6902 193.744 62.3919 191.051 62.989 199.73C63.586 208.408 55.0037 210.877 61.7203 212.598" stroke="#2F2E41" stroke-width="2" stroke-miterlimit="10"/>
<path d="M200.353 200.206L198.397 212.725C198.397 212.725 188.768 217.854 195.538 218.005C202.309 218.156 234.207 218.005 234.207 218.005C234.207 218.005 240.376 218.005 230.596 212.575L228.64 199.451L200.353 200.206Z" fill="#2F2E41"/>
<path opacity="0.1" d="M194.176 217.869C195.714 216.497 198.397 215.068 198.397 215.068L200.353 202.548L228.64 202.575L230.596 214.917C232.877 216.184 234.289 217.154 235.116 217.899C236.372 217.612 237.745 216.544 230.596 212.575L228.64 199.451L200.353 200.206L198.397 212.725C198.397 212.725 190.305 217.036 194.176 217.869Z" fill="black"/>
<path d="M273.586 112.944H155.106C152.632 112.944 150.625 114.955 150.625 117.436V197.448C150.625 199.929 152.632 201.94 155.106 201.94H273.586C276.061 201.94 278.067 199.929 278.067 197.448V117.436C278.067 114.955 276.061 112.944 273.586 112.944Z" fill="#2F2E41"/>
<path d="M273.778 117.695H154.914V184.367H273.778V117.695Z" fill="#3F3D56"/>
<path d="M214.346 116.338C214.762 116.338 215.098 116 215.098 115.584C215.098 115.167 214.762 114.829 214.346 114.829C213.931 114.829 213.594 115.167 213.594 115.584C213.594 116 213.931 116.338 214.346 116.338Z" fill="#F2F2F2"/>
<path d="M278.067 189.647V197.448C278.067 198.038 277.951 198.622 277.726 199.167C277.501 199.712 277.171 200.208 276.754 200.625C276.338 201.042 275.844 201.373 275.301 201.599C274.757 201.824 274.174 201.94 273.586 201.94H155.106C154.518 201.94 153.935 201.824 153.391 201.599C152.848 201.373 152.354 201.042 151.938 200.625C151.522 200.208 151.192 199.712 150.966 199.167C150.741 198.622 150.625 198.038 150.625 197.448V189.647H278.067Z" fill="#2F2E41"/>
<path d="M247.598 226.15V227.659H166.65V226.452L166.761 226.15L168.756 220.72H245.943L247.598 226.15Z" fill="#2F2E41"/>
<path d="M278.75 224.674C278.602 225.306 278.046 225.972 276.788 226.603C272.274 228.865 263.096 226 263.096 226C263.096 226 256.024 224.793 256.024 221.625C256.223 221.489 256.43 221.365 256.644 221.256C258.542 220.249 264.834 217.765 275.991 221.361C276.813 221.619 277.547 222.102 278.112 222.754C278.564 223.285 278.918 223.958 278.75 224.674Z" fill="#2F2E41"/>
<path opacity="0.1" d="M278.75 224.674C273.225 226.796 268.3 226.954 263.246 223.435C260.697 221.661 258.382 221.222 256.644 221.256C258.542 220.249 264.834 217.765 275.991 221.361C276.813 221.619 277.547 222.102 278.112 222.754C278.564 223.285 278.918 223.958 278.75 224.674Z" fill="black"/>
<path d="M271.822 223.435C272.903 223.435 273.778 223.165 273.778 222.832C273.778 222.499 272.903 222.228 271.822 222.228C270.742 222.228 269.866 222.499 269.866 222.832C269.866 223.165 270.742 223.435 271.822 223.435Z" fill="#F2F2F2"/>
<path d="M214.346 198.697C215.925 198.697 217.205 197.414 217.205 195.831C217.205 194.248 215.925 192.965 214.346 192.965C212.767 192.965 211.487 194.248 211.487 195.831C211.487 197.414 212.767 198.697 214.346 198.697Z" fill="#F2F2F2"/>
<path opacity="0.1" d="M247.598 226.15V227.659H166.65V226.452L166.761 226.15H247.598Z" fill="black"/>
<path d="M85.6144 99.5794H33.9678V159.82H85.6144V99.5794Z" fill="#2F2E41"/>
<path d="M90.8287 93.6051H28.7534V115.013H90.8287V93.6051Z" fill="#3F3D56"/>
<path d="M90.8287 118.996H28.7534V140.403H90.8287V118.996Z" fill="#3F3D56"/>
<path d="M90.8287 144.386H28.7534V165.794H90.8287V144.386Z" fill="#3F3D56"/>
<path opacity="0.4" d="M78.4136 97.3391H74.4408V101.322H78.4136V97.3391Z" fill="#1868F1"/>
<path opacity="0.8" d="M84.1245 97.3391H80.1517V101.322H84.1245V97.3391Z" fill="#1868F1"/>
<path d="M89.8355 97.3391H85.8627V101.322H89.8355V97.3391Z" fill="#1868F1"/>
<path opacity="0.4" d="M78.4136 122.481H74.4408V126.464H78.4136V122.481Z" fill="#1868F1"/>
<path opacity="0.8" d="M84.1245 122.481H80.1517V126.464H84.1245V122.481Z" fill="#1868F1"/>
<path d="M89.8355 122.481H85.8627V126.464H89.8355V122.481Z" fill="#1868F1"/>
<path opacity="0.4" d="M78.4136 147.622H74.4408V151.605H78.4136V147.622Z" fill="#1868F1"/>
<path opacity="0.8" d="M84.1245 147.622H80.1517V151.605H84.1245V147.622Z" fill="#1868F1"/>
<path d="M89.8355 147.622H85.8627V151.605H89.8355V147.622Z" fill="#1868F1"/>
<path d="M85.6144 213.588C96.4479 213.588 105.23 204.784 105.23 193.923C105.23 183.062 96.4479 174.258 85.6144 174.258C74.7809 174.258 65.9986 183.062 65.9986 193.923C65.9986 204.784 74.7809 213.588 85.6144 213.588Z" fill="#2F2E41"/>
<path d="M82.6348 209.356H76.6755V220.06H82.6348V209.356Z" fill="#2F2E41"/>
<path d="M94.5532 209.356H88.5939V220.06H94.5532V209.356Z" fill="#2F2E41"/>
<path d="M81.6416 222.052C84.3842 222.052 86.6076 221.216 86.6076 220.185C86.6076 219.153 84.3842 218.318 81.6416 218.318C78.8989 218.318 76.6755 219.153 76.6755 220.185C76.6755 221.216 78.8989 222.052 81.6416 222.052Z" fill="#2F2E41"/>
<path d="M93.56 221.803C96.3026 221.803 98.526 220.967 98.526 219.936C98.526 218.905 96.3026 218.069 93.56 218.069C90.8173 218.069 88.5939 218.905 88.5939 219.936C88.5939 220.967 90.8173 221.803 93.56 221.803Z" fill="#2F2E41"/>
<path d="M86.1109 195.665C89.8135 195.665 92.815 192.656 92.815 188.944C92.815 185.232 89.8135 182.223 86.1109 182.223C82.4083 182.223 79.4068 185.232 79.4068 188.944C79.4068 192.656 82.4083 195.665 86.1109 195.665Z" fill="white"/>
<path d="M86.1109 191.185C87.3451 191.185 88.3456 190.182 88.3456 188.944C88.3456 187.707 87.3451 186.704 86.1109 186.704C84.8767 186.704 83.8762 187.707 83.8762 188.944C83.8762 190.182 84.8767 191.185 86.1109 191.185Z" fill="#3F3D56"/>
<path d="M66.5864 175.635C65.0025 168.523 70.0655 161.338 77.895 159.585C85.7245 157.832 93.3555 162.176 94.9394 169.288C96.5233 176.399 91.3344 179.022 83.5049 180.774C75.6755 182.527 68.1703 182.746 66.5864 175.635Z" fill="#1868F1"/>
<path d="M104.012 190.001C108.992 187.864 112.486 184.861 111.817 183.294C111.148 181.727 106.569 182.188 101.589 184.325C96.6092 186.462 93.1147 189.464 93.7838 191.032C94.4529 192.599 99.0322 192.137 104.012 190.001Z" fill="#2F2E41"/>
<path d="M67.2635 203.194C72.2433 201.057 75.7378 198.054 75.0687 196.487C74.3996 194.92 69.8203 195.381 64.8405 197.518C59.8607 199.655 56.3661 202.658 57.0353 204.225C57.7044 205.792 62.2837 205.33 67.2635 203.194Z" fill="#2F2E41"/>
<path d="M97.0362 199.648C97.0362 201.573 92.0929 205.373 86.6075 205.373C81.1222 205.373 75.9306 201.822 75.9306 199.897C75.9306 197.972 81.1222 198.403 86.6075 198.403C92.0929 198.403 97.0362 197.723 97.0362 199.648Z" fill="white"/>
</g>
<defs>
<clipPath id="clip0_168_13148">
<rect width="278" height="174" fill="white" transform="translate(7 60)"/>
</clipPath>
</defs>
</svg>
