<svg width="336" height="229" viewBox="0 0 336 229" fill="none" xmlns="http://www.w3.org/2000/svg">
<g clip-path="url(#clip0_114_8330)">
<path d="M199.979 222.893C199.929 224.79 199.611 226.669 199.035 228.477C199.023 228.519 199.008 228.56 198.995 228.602H195.471C195.475 228.565 195.479 228.523 195.482 228.477C195.717 225.778 194.375 209.545 192.756 206.736C192.898 206.964 200.253 214.317 199.979 222.893Z" fill="#E6E6E6"/>
<path d="M199.715 228.477C199.686 228.519 199.655 228.561 199.624 228.602H196.98C197 228.567 197.024 228.525 197.051 228.477C197.487 227.69 198.78 225.335 199.979 222.893C201.268 220.27 202.451 217.547 202.352 216.562C202.383 216.784 203.275 223.56 199.715 228.477Z" fill="#E6E6E6"/>
<path d="M335.461 157.254C335.324 157.254 335.193 157.203 335.094 157.11C334.994 157.017 334.933 156.89 334.924 156.754C334.479 150.713 331.768 145.063 327.334 140.934C322.9 136.805 317.069 134.502 311.008 134.486C310.282 134.486 309.52 134.523 308.744 134.595C308.641 134.605 308.538 134.585 308.446 134.537C308.354 134.489 308.278 134.416 308.226 134.327C305.445 129.461 301.292 125.522 296.284 123.001C291.277 120.48 285.638 119.488 280.071 120.15C274.503 120.812 269.254 123.098 264.978 126.722C260.702 130.347 257.589 135.15 256.027 140.532C255.994 140.646 255.924 140.745 255.828 140.815C255.733 140.886 255.616 140.922 255.498 140.92L255.318 140.915C255.223 140.912 255.129 140.908 255.033 140.908C250.431 140.923 245.973 142.509 242.397 145.405C238.822 148.3 236.344 152.331 235.376 156.827C235.35 156.948 235.284 157.056 235.188 157.134C235.092 157.212 234.972 157.254 234.848 157.254H189.531C189.388 157.254 189.251 157.198 189.15 157.097C189.049 156.996 188.992 156.859 188.992 156.716C188.992 156.573 189.049 156.436 189.15 156.335C189.251 156.234 189.388 156.177 189.531 156.177H234.416C235.517 151.535 238.15 147.398 241.89 144.433C245.63 141.468 250.259 139.847 255.033 139.831C255.059 139.831 255.085 139.832 255.111 139.832C256.941 133.906 260.571 128.696 265.498 124.927C270.646 120.982 276.957 118.853 283.444 118.873C288.605 118.883 293.675 120.236 298.154 122.8C302.633 125.363 306.367 129.049 308.988 133.493C309.678 133.437 310.357 133.409 311.008 133.409C317.341 133.426 323.434 135.833 328.068 140.147C332.701 144.462 335.534 150.366 335.999 156.678C336.004 156.749 335.995 156.82 335.972 156.887C335.95 156.954 335.914 157.016 335.868 157.069C335.822 157.123 335.765 157.166 335.702 157.198C335.638 157.229 335.569 157.248 335.499 157.253C335.486 157.254 335.473 157.254 335.461 157.254Z" fill="#E5E5E5"/>
<path d="M309.512 165.923H216.476C216.334 165.922 216.197 165.866 216.096 165.765C215.996 165.664 215.939 165.527 215.939 165.384C215.939 165.242 215.996 165.105 216.096 165.004C216.197 164.903 216.334 164.846 216.476 164.846H309.512C309.654 164.846 309.791 164.903 309.892 165.004C309.992 165.105 310.049 165.242 310.049 165.384C310.049 165.527 309.992 165.664 309.892 165.765C309.791 165.866 309.654 165.922 309.512 165.923Z" fill="#E5E5E5"/>
<path d="M243.534 175.726H206.33C206.187 175.726 206.05 175.669 205.949 175.568C205.848 175.467 205.791 175.33 205.791 175.187C205.791 175.044 205.848 174.907 205.949 174.806C206.05 174.705 206.187 174.649 206.33 174.649H243.534C243.677 174.649 243.814 174.705 243.915 174.806C244.016 174.907 244.073 175.044 244.073 175.187C244.073 175.33 244.016 175.467 243.915 175.568C243.814 175.669 243.677 175.726 243.534 175.726Z" fill="#E5E5E5"/>
<path d="M172.428 45.4646C172.226 45.4644 172.033 45.388 171.886 45.2508C171.739 45.1136 171.649 44.9258 171.635 44.7252C171.115 37.6613 167.945 31.0542 162.76 26.2261C157.574 21.3979 150.756 18.7048 143.669 18.6858C142.821 18.6858 141.93 18.7289 141.021 18.8139C140.869 18.8282 140.716 18.7984 140.58 18.7281C140.445 18.6578 140.332 18.55 140.256 18.4175C137.001 12.7226 132.14 8.11193 126.279 5.16096C120.418 2.20999 113.818 1.04938 107.301 1.82398C100.785 2.59859 94.6409 5.2741 89.6362 9.51661C84.6316 13.7591 80.9879 19.3808 79.1598 25.6799C79.1115 25.8487 79.0085 25.9967 78.8668 26.1006C78.7252 26.2044 78.553 26.2582 78.3774 26.2536L78.1659 26.2472C78.0559 26.2435 77.9459 26.2396 77.835 26.2396C72.4597 26.2564 67.2517 28.1096 63.0752 31.4917C58.8986 34.8738 56.0046 39.5815 54.8734 44.8335C54.8358 45.012 54.7379 45.1721 54.5961 45.287C54.4544 45.4019 54.2774 45.4647 54.0949 45.4646H0.795623C0.584623 45.4646 0.382264 45.3809 0.233064 45.2318C0.0838647 45.0826 4.57764e-05 44.8804 4.57764e-05 44.6695C4.57764e-05 44.4586 0.0838647 44.2564 0.233064 44.1073C0.382264 43.9581 0.584623 43.8744 0.795623 43.8744H53.4582C54.784 38.4115 57.9024 33.5498 62.3158 30.0652C66.7292 26.5806 72.1832 24.6739 77.8076 24.6493C79.8098 18.1761 83.6499 12.4234 88.8613 8.09002C94.0727 3.75664 100.431 1.02912 107.164 0.238808C113.897 -0.551502 120.715 0.629421 126.789 3.63811C132.863 6.64679 137.932 11.3537 141.381 17.1871C142.163 17.1262 142.931 17.0955 143.669 17.0955C151.158 17.1158 158.364 19.9618 163.843 25.0642C169.323 30.1666 172.673 37.1488 173.222 44.6138C173.23 44.718 173.216 44.8226 173.183 44.9216C173.15 45.0207 173.098 45.1122 173.029 45.191C172.961 45.2699 172.877 45.3344 172.784 45.3811C172.69 45.4277 172.588 45.4554 172.484 45.4627C172.465 45.4641 172.446 45.4646 172.428 45.4646Z" fill="#E5E5E5"/>
<path d="M162.962 55.6597H32.4871C32.2761 55.6597 32.0737 55.576 31.9245 55.4268C31.7753 55.2777 31.6915 55.0755 31.6915 54.8646C31.6915 54.6537 31.7753 54.4515 31.9245 54.3023C32.0737 54.1532 32.2761 54.0695 32.4871 54.0695H162.962C163.173 54.0695 163.375 54.1532 163.524 54.3023C163.674 54.4515 163.757 54.6537 163.757 54.8646C163.757 55.0755 163.674 55.2777 163.524 55.4268C163.375 55.576 163.173 55.6597 162.962 55.6597Z" fill="#E5E5E5"/>
<path d="M64.3102 67.1893H20.5534C20.3424 67.1893 20.1401 67.1055 19.9909 66.9564C19.8417 66.8073 19.7578 66.605 19.7578 66.3941C19.7578 66.1833 19.8417 65.981 19.9909 65.8319C20.1401 65.6828 20.3424 65.599 20.5534 65.599H64.3102C64.5212 65.599 64.7235 65.6828 64.8727 65.8319C65.0219 65.981 65.1058 66.1833 65.1058 66.3941C65.1058 66.605 65.0219 66.8073 64.8727 66.9564C64.7235 67.1055 64.5212 67.1893 64.3102 67.1893Z" fill="#E5E5E5"/>
<path d="M146.77 219.358L148.44 215.064L132.663 206.581L130.197 212.919L146.77 219.358Z" fill="#9F616A"/>
<path d="M155.72 208.156C155.012 207.88 154.256 207.747 153.497 207.763C152.737 207.78 151.988 207.946 151.293 208.252C150.597 208.558 149.969 208.997 149.444 209.546C148.918 210.095 148.506 210.742 148.231 211.45L147.105 214.345L145.367 218.813L144.943 219.909L150.51 222.073L155.895 208.225L155.72 208.156Z" fill="#2F2E41"/>
<path d="M145.368 211.094L144.641 213.019L142.828 217.825L142.785 217.945C138.166 218.539 133.102 217.376 128.418 215.569C126.544 214.847 124.708 214.028 122.919 213.117C120.27 211.779 117.898 210.367 116.006 209.16C113.158 207.332 111.396 205.96 111.396 205.96C111.396 205.96 110.931 206.381 110.089 207.101C108.96 208.066 107.157 209.574 104.872 211.348C104.001 212.029 103.065 212.742 102.066 213.486C94.6952 218.95 85.2367 204.371 85.2367 204.371C85.2367 204.371 87.8968 202.678 88.5918 202.349C90.8295 201.291 96.0866 198.794 100.622 196.575C102.959 195.431 105.101 194.357 106.54 193.594C111.633 190.884 117.965 196.013 117.965 196.013L145.368 211.094Z" fill="#2F2E41"/>
<path opacity="0.14" d="M145.368 211.094L144.641 213.019L142.828 217.825L142.785 217.945C138.166 218.539 133.102 217.376 128.418 215.569C126.544 214.847 124.708 214.028 122.919 213.117C120.27 211.779 117.898 210.367 116.006 209.16C113.158 207.332 111.396 205.96 111.396 205.96C111.396 205.96 110.931 206.381 110.089 207.101C108.96 208.066 107.157 209.574 104.872 211.348C104.001 212.029 103.065 212.742 102.066 213.486C94.6952 218.95 85.2367 204.371 85.2367 204.371C85.2367 204.371 87.8968 202.678 88.5918 202.349C90.8295 201.291 96.0866 198.794 100.622 196.575C102.959 195.431 105.101 194.357 106.54 193.594C111.633 190.884 117.965 196.013 117.965 196.013L145.368 211.094Z" fill="black"/>
<path d="M92.3864 182.476C91.8787 182.565 91.3967 182.764 90.9744 183.06C90.5521 183.355 90.1998 183.739 89.9422 184.186C89.6846 184.632 89.528 185.129 89.4835 185.642C89.439 186.156 89.5076 186.672 89.6845 187.156L83.7542 192.608L86.1898 197.018L94.4565 189.202C95.2501 188.851 95.8873 188.221 96.2475 187.432C96.6076 186.643 96.6655 185.749 96.4104 184.92C96.1552 184.091 95.6047 183.384 94.863 182.934C94.1214 182.483 93.2402 182.32 92.3864 182.476Z" fill="#9F616A"/>
<path d="M74.5423 207.261C74.2744 207.261 74.0062 207.25 73.7375 207.226C72.1377 207.093 70.5981 206.556 69.2631 205.665C67.9281 204.774 66.8415 203.558 66.1052 202.132L56.6043 183.856C55.9817 182.658 55.8451 181.267 56.2228 179.971C56.6005 178.675 57.4634 177.575 58.6321 176.899C59.8008 176.223 61.1853 176.023 62.4975 176.342C63.8098 176.66 64.9488 177.471 65.6775 178.608L74.4428 198.264L86.3697 188.578L93.2756 191.265L81.613 204.134C80.7165 205.117 79.6247 205.903 78.4073 206.442C77.1899 206.98 75.8736 207.259 74.5423 207.261Z" fill="#CCCCCC"/>
<path d="M36.4506 228.719C36.953 228.603 37.424 228.379 37.8305 228.063C38.2369 227.746 38.5689 227.344 38.8031 226.885C39.0373 226.426 39.1679 225.921 39.1858 225.406C39.2037 224.891 39.1085 224.379 38.9067 223.905L44.5471 218.154L41.8866 213.876L34.0354 222.109C33.261 222.5 32.6571 223.162 32.3383 223.969C32.0195 224.776 32.0078 225.671 32.3055 226.486C32.6032 227.301 33.1896 227.978 33.9536 228.389C34.7176 228.801 35.606 228.918 36.4506 228.719Z" fill="#9F616A"/>
<path d="M90.1157 127.259H90.6684V112.127C90.6684 110.976 90.895 109.837 91.3354 108.775C91.7758 107.712 92.4213 106.747 93.2351 105.933C94.0488 105.12 95.0149 104.475 96.0781 104.035C97.1413 103.595 98.2809 103.368 99.4317 103.368H131.51C133.835 103.368 136.064 104.291 137.707 105.933C139.35 107.576 140.274 109.804 140.274 112.127V195.147C140.274 197.47 139.35 199.697 137.707 201.34C136.064 202.982 133.835 203.905 131.51 203.905H99.4317C97.1075 203.905 94.8786 202.982 93.2351 201.34C91.5917 199.697 90.6684 197.47 90.6684 195.147V138.031H90.1157V127.259Z" fill="#3F3D56"/>
<path d="M99.0781 105.647H103.265C103.073 106.119 102.999 106.631 103.051 107.137C103.103 107.644 103.279 108.131 103.564 108.554C103.848 108.977 104.232 109.323 104.682 109.563C105.132 109.802 105.634 109.928 106.144 109.928H124.522C125.031 109.928 125.534 109.802 125.984 109.563C126.433 109.323 126.818 108.977 127.102 108.554C127.386 108.131 127.562 107.644 127.614 107.137C127.666 106.631 127.593 106.119 127.4 105.647H131.311C133.047 105.647 134.712 106.336 135.939 107.562C137.166 108.789 137.856 110.453 137.856 112.187V195.086C137.856 195.945 137.686 196.795 137.358 197.589C137.029 198.382 136.547 199.103 135.939 199.711C135.331 200.318 134.61 200.8 133.816 201.129C133.022 201.457 132.171 201.627 131.311 201.627H99.0781C98.2187 201.627 97.3677 201.457 96.5737 201.129C95.7797 200.8 95.0583 200.318 94.4506 199.711C93.8429 199.103 93.3608 198.382 93.0319 197.589C92.703 196.795 92.5338 195.945 92.5338 195.086V112.187C92.5338 110.453 93.2232 108.789 94.4506 107.562C95.6779 106.336 97.3424 105.647 99.0781 105.647Z" fill="white"/>
<path d="M115.212 172.297C125.47 172.297 133.785 163.986 133.785 153.734C133.785 143.482 125.47 135.171 115.212 135.171C104.954 135.171 96.6387 143.482 96.6387 153.734C96.6387 163.986 104.954 172.297 115.212 172.297Z" fill="#1868F1"/>
<path d="M71.6462 170.675H49.8373C49.3887 170.674 48.9586 170.496 48.6413 170.179C48.3241 169.862 48.1457 169.432 48.1452 168.984V159.589C48.1471 156.251 49.475 153.05 51.8371 150.691C54.1992 148.331 57.4022 147.006 60.7417 147.006C64.0813 147.006 67.2843 148.331 69.6464 150.691C72.0085 153.05 73.3364 156.251 73.3383 159.589V168.984C73.3378 169.432 73.1594 169.862 72.8422 170.179C72.5249 170.496 72.0948 170.674 71.6462 170.675Z" fill="#2F2E41"/>
<path d="M145.438 225.398L147.433 221.245L132.354 211.575L129.409 217.705L145.438 225.398Z" fill="#9F616A"/>
<path d="M155.222 214.916C154.537 214.587 153.794 214.396 153.035 214.354C152.277 214.312 151.517 214.42 150.8 214.671C150.083 214.923 149.423 215.313 148.857 215.82C148.291 216.327 147.831 216.94 147.502 217.625L146.156 220.425L144.081 224.747L143.573 225.807L148.957 228.392L155.391 214.998L155.222 214.916Z" fill="#2F2E41"/>
<path d="M144.675 217.05L143.802 218.914L141.625 223.567L141.573 223.683C136.921 223.92 131.962 222.372 127.431 220.211C125.618 219.347 123.851 218.39 122.136 217.343C119.598 215.806 117.342 214.217 115.548 212.868C112.849 210.827 111.198 209.324 111.198 209.324C111.198 209.324 110.702 209.707 109.807 210.361C108.607 211.236 106.693 212.601 104.279 214.194C103.358 214.807 102.37 215.446 101.316 216.111C93.5477 220.992 82.5004 226.938 73.1037 228.193C56.6003 230.399 60.4846 208.388 60.4846 208.388L73.6189 201.571L79.1952 202.702L85.4032 203.957L87.6029 204.404C87.6029 204.404 88.0203 204.246 88.7385 203.972C91.0509 203.089 96.4844 201.003 101.177 199.139C103.595 198.177 105.813 197.271 107.306 196.621C112.593 194.31 118.512 199.91 118.512 199.91L144.675 217.05Z" fill="#2F2E41"/>
<path d="M63.8296 171.094C68.6861 171.094 72.6232 167.16 72.6232 162.306C72.6232 157.452 68.6861 153.517 63.8296 153.517C58.973 153.517 55.0359 157.452 55.0359 162.306C55.0359 167.16 58.973 171.094 63.8296 171.094Z" fill="#9F616A"/>
<path d="M52.3893 186.702L60.0495 208.407L60.0035 208.483C58.938 210.244 58.5899 211.663 58.9966 212.589C59.1038 212.825 59.2608 213.034 59.4567 213.203C59.6527 213.372 59.8829 213.497 60.1316 213.568L78.2589 200.904L77.6242 195.829L77.6596 195.772C79.4117 192.97 79.979 190.433 79.346 188.231C78.5247 185.373 75.9147 184.076 75.8885 184.063L75.8253 184.013L66.784 173.015L54.698 175.161L52.3893 186.702Z" fill="#CCCCCC"/>
<path d="M40.7404 224.8L35.6087 218.488L47.9794 198.078L53.747 180.259C54.0621 179.286 54.5823 178.391 55.2725 177.636C55.9628 176.881 56.8071 176.282 57.7484 175.88C58.6898 175.478 59.7065 175.283 60.7298 175.307C61.7532 175.331 62.7595 175.574 63.6809 176.02C64.6023 176.465 65.4174 177.103 66.0713 177.89C66.7252 178.677 67.2026 179.596 67.4715 180.583C67.7403 181.57 67.7943 182.603 67.6298 183.613C67.4653 184.623 67.0862 185.586 66.5179 186.436L55.9294 202.291L40.7404 224.8Z" fill="#CCCCCC"/>
<path d="M76.3184 160.528H62.9827L62.8459 158.614L62.1622 160.528H60.1088L59.8378 156.735L58.4826 160.528H54.5094V160.34C54.5124 157.7 55.5631 155.168 57.4312 153.301C59.2992 151.434 61.8319 150.384 64.4737 150.381H66.3539C68.9957 150.384 71.5285 151.434 73.3966 153.301C75.2646 155.168 76.3154 157.7 76.3184 160.34L76.3184 160.528Z" fill="#2F2E41"/>
<path d="M62.8736 172.429C62.7732 172.429 62.673 172.42 62.5741 172.402L52.8091 170.68V154.551H63.5585L63.2924 154.861C59.5897 159.177 62.3792 166.175 64.3716 169.962C64.5184 170.24 64.5839 170.553 64.5605 170.866C64.537 171.179 64.4256 171.479 64.2391 171.731C64.0829 171.947 63.8777 172.123 63.6403 172.244C63.4029 172.365 63.1401 172.429 62.8736 172.429Z" fill="#2F2E41"/>
<path d="M236.454 229H22.0459C21.9404 229 21.8392 228.958 21.7646 228.884C21.69 228.809 21.6481 228.708 21.6481 228.602C21.6481 228.497 21.69 228.396 21.7646 228.321C21.8392 228.247 21.9404 228.205 22.0459 228.205H236.454C236.56 228.205 236.661 228.247 236.735 228.321C236.81 228.396 236.852 228.497 236.852 228.602C236.852 228.708 236.81 228.809 236.735 228.884C236.661 228.958 236.56 229 236.454 229Z" fill="#CBCBCB"/>
<path d="M120.473 151.122C122.293 150.125 124.5 150.388 126.172 151.506C130.076 154.114 129.149 159.975 124.797 161.514C124.151 161.742 123.125 161.852 121.721 161.843C116.962 161.813 112.529 161.802 108.422 161.811C107.868 161.813 107.264 161.697 106.61 161.463C103.262 160.268 101.847 156.153 103.733 153.207C104.907 151.371 106.637 150.471 108.921 150.505C109.023 150.507 109.081 150.456 109.094 150.354C109.418 147.861 111.529 145.978 113.921 145.674C117.266 145.247 120.056 147.684 120.277 151.014C120.286 151.152 120.351 151.188 120.473 151.122ZM119.156 152.026C119.228 151.947 119.269 151.853 119.278 151.745C119.356 150.803 119.214 149.968 118.853 149.241C116.81 145.114 110.773 146.019 110.026 150.546C110.008 150.651 110.05 150.719 110.152 150.75C110.989 151.008 111.738 151.437 112.4 152.035C112.422 152.056 112.44 152.082 112.452 152.11C112.463 152.139 112.468 152.17 112.466 152.201C112.463 152.232 112.454 152.262 112.438 152.288C112.422 152.315 112.401 152.338 112.375 152.355C112.222 152.455 112.091 152.576 111.983 152.717C111.905 152.819 111.819 152.826 111.725 152.739C109.657 150.843 106.178 151.126 104.644 153.579C103.624 155.211 103.588 156.873 104.536 158.567C105.299 159.926 106.898 160.821 108.46 160.824C112.994 160.827 117.692 160.83 122.554 160.833C123.455 160.834 124.171 160.728 124.7 160.513C127.25 159.48 128.492 156.409 127.099 153.936C125.585 151.248 122.167 150.676 119.849 152.703C119.749 152.79 119.65 152.789 119.552 152.699L119.17 152.348C119.059 152.244 119.054 152.137 119.156 152.026Z" fill="white"/>
</g>
<defs>
<clipPath id="clip0_114_8330">
<rect width="336" height="229" fill="white"/>
</clipPath>
</defs>
</svg>
