<svg width="140" height="24" viewBox="0 0 140 24" fill="none" xmlns="http://www.w3.org/2000/svg">
<path d="M14.9767 2.92256C13.4509 1.64085 11.3452 1 8.65971 1H1V2.40377H8.65971C10.918 2.40377 12.6574 2.92256 13.8781 3.92961C15.0682 4.93667 15.6786 6.37096 15.6786 8.20196C15.6786 10.0635 15.0682 11.4978 13.8781 12.4743C12.6574 13.4814 10.918 13.9696 8.65971 13.9696H1V22.3618H2.55636V15.3734H8.65971C11.3452 15.3734 13.4509 14.7631 14.9767 13.4814C16.5025 12.1997 17.2655 10.4602 17.2655 8.20196C17.2655 5.97424 16.5025 4.20426 14.9767 2.92256Z" fill="#1868F1" stroke="#1868F1" stroke-width="2" stroke-miterlimit="2"/>
<path d="M38.0159 14.8851C39.6027 14.4274 40.8539 13.634 41.7084 12.4743C42.5629 11.3147 43.0206 9.9109 43.0206 8.20196C43.0206 5.97424 42.2577 4.20426 40.7319 2.92256C39.206 1.64085 37.1004 1 34.4149 1H26.7552V2.40377H34.4149C36.6731 2.40377 38.4126 2.92256 39.6333 3.92961C40.8234 4.93667 41.4337 6.37096 41.4337 8.20196C41.4337 10.0635 40.8234 11.4978 39.6333 12.5048C38.4126 13.5119 36.6731 14.0002 34.4149 14.0002H26.7552V22.3618H28.3115V15.3734H34.4149C35.0252 15.3734 35.7271 15.3429 36.49 15.2208L41.5863 22.3618H43.3563L38.0159 14.8851Z" fill="#1868F1" stroke="#1868F1" stroke-width="2" stroke-miterlimit="2"/>
<path d="M66.8113 10.8264H52.9872V12.1997H66.8113V10.8264ZM66.8113 1H52.9872V2.40377H66.8113V1ZM52.9872 20.958V22.3618H66.8113V20.958H52.9872Z" fill="#1868F1" stroke="#1868F1" stroke-width="2" stroke-miterlimit="2"/>
<path d="M97.8716 22.3618H99.3974L99.3669 1H98.0852L88.5335 17.5096L78.9817 1H77.6695V22.3618H79.1953V4.14323L88.1367 19.5237H88.8997L97.8411 4.0822L97.8716 22.3618Z" fill="#1868F1" stroke="#1868F1" stroke-width="2" stroke-miterlimit="2"/>
<path d="M118.866 1H117.31L107.483 22.3618H109.162L118.073 2.70894L127.014 22.3618H128.693L118.866 1Z" fill="#1868F1" stroke="#1868F1" stroke-width="2" stroke-miterlimit="2"/>
<path d="M136.809 1V22.3618H138.365V1H136.809Z" fill="#1868F1" stroke="#1868F1" stroke-width="2" stroke-miterlimit="2"/>
</svg>
